<svg width="34" height="25" fill="none" xmlns="http://www.w3.org/2000/svg"><path d="M26.625 9.785v-6.91a2.753 2.753 0 00-2.75-2.75H3.25A2.753 2.753 0 00.5 2.875v13.75a2.753 2.753 0 002.75 2.75h15.418c.901 3.17 3.815 5.5 7.27 5.5 1.329 0 2.636-.35 3.781-1.012a.687.687 0 10-.688-1.19 6.187 6.187 0 01-3.093.827 6.194 6.194 0 01-6.188-6.188 6.194 6.194 0 016.188-6.187 6.194 6.194 0 016.187 6.188V18c0 .758-.617 1.375-1.375 1.375A1.377 1.377 0 0129.375 18v-2.75a.687.687 0 00-1.162-.494 3.41 3.41 0 00-2.276-.881 3.441 3.441 0 00-3.437 3.438 3.442 3.442 0 003.438 3.437c1.024 0 1.935-.46 2.565-1.173A2.744 2.744 0 0033.5 18v-.688c0-3.937-3.026-7.178-6.875-7.527zM3.25 1.5h20.625c.029 0 .053.015.08.016l-9.827 8.068c-.35.22-.857.174-1.085.034L3.17 1.516c.028-.001.052-.016.08-.016zm22 8.285c-3.849.349-6.875 3.59-6.875 7.527 0 .233.014.461.035.688H3.25a1.377 1.377 0 01-1.375-1.375V2.875c0-.195.043-.379.116-.547l10.24 8.398c.401.261.86.4 1.332.4a2.43 2.43 0 001.395-.445l10.176-8.353c.073.168.116.352.116.547v6.91zm.688 9.59a2.065 2.065 0 01-2.063-2.063c0-1.137.925-2.062 2.063-2.062 1.137 0 2.062.925 2.062 2.063a2.065 2.065 0 01-2.063 2.062z" fill="#000"/></svg>