<svg width="35" height="34" fill="none" xmlns="http://www.w3.org/2000/svg"><path d="M17.5 0C10.575 0 4.94 5.634 4.94 12.56c0 2.28 1.023 4.732 1.066 4.835.33.784.982 2.002 1.452 2.715l8.611 13.048c.353.535.874.842 1.431.842s1.079-.307 1.431-.84l8.613-13.05a20.172 20.172 0 001.451-2.715c.043-.102 1.065-2.554 1.065-4.835C30.06 5.634 24.426 0 17.5 0zm10.133 16.822a18.557 18.557 0 01-1.323 2.475l-8.613 13.049c-.17.258-.223.258-.393 0L8.69 19.297a18.573 18.573 0 01-1.323-2.476c-.012-.03-.95-2.287-.95-4.261 0-6.11 4.971-11.082 11.082-11.082 6.11 0 11.082 4.971 11.082 11.082 0 1.977-.94 4.24-.949 4.262z" fill="#000"/><path d="M17.5 5.911a6.657 6.657 0 00-6.65 6.65 6.657 6.657 0 006.65 6.649 6.657 6.657 0 006.65-6.65 6.657 6.657 0 00-6.65-6.649zm0 11.821a5.178 5.178 0 01-5.172-5.171A5.178 5.178 0 0117.5 7.388a5.178 5.178 0 015.172 5.171 5.178 5.178 0 01-5.172 5.172z" fill="#000"/></svg>