<svg width="27" height="29" fill="none" xmlns="http://www.w3.org/2000/svg"><path d="M23.654 27.79l.575.658a1.51 1.51 0 002.125.143 1.51 1.51 0 00.142-2.125l-.574-.657-2.268 1.981zM3.57 2.52c-4.178 3.651-4.607 10.022-.956 14.2 3.316 3.795 8.871 4.497 12.993 1.862.187-.12.371-.247.553-.38a.797.797 0 00.078.105l1.003 1.148-.494.431 5.837 6.68 2.268-1.981-5.837-6.68-.494.431-1.004-1.148a1.042 1.042 0 00-.094-.09c.157-.162.308-.328.452-.497 3.163-3.732 3.212-9.331-.104-13.126C14.119-.704 7.748-1.13 3.571 2.52zm13.411 13.058a8.816 8.816 0 01-2.267 1.982 8.727 8.727 0 01-11.089-1.722A8.722 8.722 0 014.453 3.53a8.722 8.722 0 0112.528 12.048z" fill="#393737"/><path d="M15.03 9.893a.698.698 0 01-.696.697h-3.392v3.392a.698.698 0 01-1.394 0v-3.391H6.156a.697.697 0 010-1.395h3.392V5.804a.698.698 0 011.394 0v3.392h3.392c.384 0 .697.313.697.697z" fill="#393737"/></svg>