<svg width="31" height="30" fill="none" xmlns="http://www.w3.org/2000/svg"><path d="M24.223 18.584c-.615-.64-1.357-.981-2.144-.981-.78 0-1.528.335-2.168.975l-2.004 1.994c-.165-.088-.33-.17-.488-.253a8.04 8.04 0 01-.628-.336c-1.877-1.19-3.583-2.741-5.219-4.748-.792-1-1.325-1.843-1.712-2.698.52-.475 1.002-.969 1.472-1.443l.532-.539c1.332-1.33 1.332-3.051 0-4.381l-1.73-1.729c-.197-.196-.4-.399-.59-.601a29.53 29.53 0 00-1.193-1.178c-.615-.608-1.35-.93-2.124-.93s-1.522.322-2.156.93l-.013.013L1.903 4.85A4.63 4.63 0 00.527 7.795c-.153 1.849.393 3.57.811 4.698 1.027 2.767 2.562 5.331 4.851 8.08 2.777 3.31 6.119 5.926 9.936 7.768 1.459.69 3.405 1.507 5.58 1.646.133.007.273.013.4.013 1.465 0 2.695-.525 3.659-1.57.006-.013.018-.02.025-.032.33-.399.71-.76 1.11-1.146.272-.26.551-.532.824-.817.628-.652.957-1.412.957-2.19 0-.786-.336-1.539-.976-2.172l-3.481-3.489zm2.27 6.667c-.007 0-.007.007 0 0-.248.266-.501.507-.774.773-.412.392-.83.804-1.224 1.266-.64.684-1.395 1.007-2.384 1.007-.095 0-.197 0-.292-.006-1.883-.12-3.633-.855-4.945-1.482-3.59-1.735-6.74-4.198-9.36-7.32-2.162-2.602-3.608-5.008-4.565-7.591-.59-1.577-.805-2.805-.71-3.964.063-.74.348-1.355.875-1.88l2.162-2.16c.31-.29.64-.45.964-.45.4 0 .723.242.926.444l.019.02c.386.36.754.734 1.14 1.133.197.202.4.405.603.614l1.731 1.728c.672.671.672 1.292 0 1.963-.184.184-.361.367-.545.545a33.127 33.127 0 01-1.592 1.545c-.012.012-.025.018-.031.031-.546.545-.444 1.077-.33 1.438l.02.056c.45 1.09 1.083 2.115 2.047 3.337l.007.007c1.75 2.152 3.595 3.83 5.63 5.116.26.164.527.297.78.424.229.114.444.222.628.335.025.013.05.032.076.045.216.107.419.158.628.158.526 0 .856-.33.964-.437l2.168-2.165c.216-.215.558-.475.958-.475.393 0 .716.247.913.462l.012.013 3.494 3.489c.653.645.653 1.31.007 1.981zM16.715 7.136a8.045 8.045 0 014.375 2.267 8.067 8.067 0 012.27 4.369.85.85 0 00.844.71c.05 0 .095-.007.145-.014a.854.854 0 00.704-.987 9.761 9.761 0 00-2.745-5.287 9.785 9.785 0 00-5.295-2.742.86.86 0 00-.99.697.846.846 0 00.692.987zm13.773 6.098a16.06 16.06 0 00-4.522-8.706A16.098 16.098 0 0017.248.013a.853.853 0 10-.28 1.684c2.956.5 5.65 1.9 7.794 4.034a14.338 14.338 0 014.039 7.781.85.85 0 00.843.71c.05 0 .095-.007.146-.013a.839.839 0 00.698-.975z" fill="#000"/></svg>