<svg width="31" height="31" fill="none" xmlns="http://www.w3.org/2000/svg"><g clip-path="url(#clip0_69_1334)" fill="#000"><path d="M15.5 0C7.23 0 .5 6.953.5 15.5S7.229 31 15.5 31c8.272 0 15-6.953 15-15.5S23.772 0 15.5 0zm0 29.652c-7.552 0-13.696-6.349-13.696-14.152 0-7.803 6.144-14.152 13.696-14.152S29.196 7.697 29.196 15.5c0 7.803-6.144 14.152-13.696 14.152z"/><path d="M15.5 25.609a.663.663 0 00-.652.674c0 .372.292.673.652.673 6.113 0 11.087-5.139 11.087-11.456a.662.662 0 00-.652-.674.662.662 0 00-.652.674c0 5.574-4.389 10.109-9.783 10.109zm0-20.218c.36 0 .652-.3.652-.674a.663.663 0 00-.652-.674c-6.113 0-11.087 5.14-11.087 11.457 0 .373.292.674.652.674.36 0 .652-.301.652-.674 0-5.574 4.389-10.109 9.783-10.109zm0 2.696a.663.663 0 00-.652.674V15.5c0 .373.292.674.652.674h6.522c.36 0 .652-.301.652-.674a.662.662 0 00-.652-.674h-5.87V8.761a.663.663 0 00-.652-.674zM8.583 21.695l-.922.953a.675.675 0 00-.191.476.693.693 0 00.19.476.64.64 0 00.923 0l.922-.953a.69.69 0 000-.952.637.637 0 00-.922 0zM21.956 9.503a.633.633 0 00.461-.198l.922-.953a.689.689 0 000-.952.637.637 0 00-.922 0l-.922.952a.677.677 0 00-.192.477.693.693 0 00.192.476.643.643 0 00.46.198z"/></g><defs><clipPath id="clip0_69_1334"><path fill="#fff" transform="translate(.5)" d="M0 0h30v31H0z"/></clipPath></defs></svg>